<svg width="415" height="415" viewBox="0 0 415 415" fill="none" xmlns="http://www.w3.org/2000/svg">
    <g clip-path="url(#clip0)">
        <path d="M207.5 0C160.606 -5.59202e-07 115.095 15.8842 78.3855 45.0633C41.6757 74.2424 15.9322 114.996 5.35118 160.68C-5.22983 206.365 -0.0243149 254.286 20.1192 296.633C40.2627 338.98 74.1563 373.255 116.275 393.871C158.394 414.488 206.254 420.229 252.054 410.16C297.854 400.091 338.893 374.806 368.481 338.425C398.069 302.044 414.462 256.714 414.987 209.823C415.512 162.932 400.138 117.246 371.372 80.2118L330.404 112.034C351.979 139.809 363.509 174.074 363.115 209.242C362.722 244.41 350.427 278.408 328.236 305.694C306.045 332.979 275.266 351.943 240.916 359.495C206.566 367.047 170.67 362.741 139.081 347.279C107.492 331.816 82.072 306.11 66.9644 274.35C51.8568 242.59 47.9526 206.648 55.8884 172.385C63.8241 138.122 83.1318 107.557 110.664 85.6725C138.196 63.7881 172.33 51.875 207.5 51.875V0Z" fill="#0072BB"/>
        <path d="M207.625 52C179.915 52 152.707 59.3987 128.813 73.4317C104.919 87.4647 85.2052 107.623 71.7083 131.824C58.2114 156.025 51.421 183.391 52.0387 211.094C52.6563 238.797 60.6597 265.833 75.2218 289.408C89.7839 312.984 110.377 332.243 134.872 345.198C159.368 358.152 186.878 364.33 214.561 363.095C242.244 361.86 269.094 353.256 292.339 338.172C315.584 323.088 334.38 302.071 346.785 277.293L299.471 253.606C291.283 269.96 278.878 283.831 263.536 293.786C248.195 303.742 230.473 309.42 212.203 310.235C193.932 311.051 175.775 306.973 159.608 298.423C143.441 289.873 129.85 277.162 120.239 261.602C110.628 246.042 105.346 228.199 104.938 209.914C104.53 191.63 109.012 173.569 117.92 157.596C126.828 141.624 139.839 128.319 155.609 119.057C171.379 109.796 189.336 104.912 207.625 104.912V52Z" fill="#A03E99"/>
        <path d="M207.625 52C179.915 52 152.707 59.3987 128.813 73.4317C104.919 87.4647 85.2052 107.623 71.7083 131.824C58.2114 156.025 51.421 183.391 52.0387 211.094C52.6563 238.797 60.6597 265.833 75.2218 289.408C89.7839 312.984 110.377 332.243 134.872 345.198C159.368 358.152 186.878 364.33 214.561 363.095C242.244 361.86 269.094 353.256 292.339 338.172C315.584 323.088 334.38 302.071 346.785 277.293L299.471 253.606C291.283 269.96 278.878 283.831 263.536 293.786C248.195 303.742 230.473 309.42 212.203 310.235C193.932 311.051 175.775 306.973 159.608 298.423C143.441 289.873 129.85 277.162 120.239 261.602C110.628 246.042 105.346 228.199 104.938 209.914C104.53 191.63 109.012 173.569 117.92 157.596C126.828 141.624 139.839 128.319 155.609 119.057C171.379 109.796 189.336 104.912 207.625 104.912V52Z" fill="#A03E99"/>
        <path d="M207.75 103C182.768 103 158.625 112.014 139.756 128.386C120.887 144.759 108.559 167.39 105.036 192.122C101.514 216.854 107.034 242.027 120.582 263.016C134.131 284.005 154.797 299.401 178.786 306.375C202.775 313.349 228.474 311.434 251.164 300.98C273.854 290.526 292.009 272.237 302.296 249.471C312.583 226.705 314.31 200.992 307.16 177.055C300.01 153.119 284.463 132.565 263.375 119.172L235.562 162.961C246.106 169.658 253.88 179.934 257.455 191.903C261.03 203.871 260.166 216.728 255.023 228.11C249.88 239.493 240.802 248.638 229.457 253.865C218.112 259.092 205.262 260.05 193.268 256.563C181.274 253.075 170.94 245.378 164.166 234.883C157.392 224.389 154.632 211.802 156.393 199.436C158.154 187.07 164.318 175.754 173.753 167.568C183.188 159.382 195.259 154.875 207.75 154.875V103Z" fill="#371E30"/>
    </g>
    <defs>
        <clipPath id="clip0">
            <rect width="415" height="415" fill="white"/>
        </clipPath>
    </defs>
</svg>
